<?xml version="1.0" encoding="UTF-8" standalone="no"?>
<!-- Created with Inkscape (http://www.inkscape.org/) -->

<svg
   width="210mm"
   height="297mm"
   viewBox="0 0 210 297"
   version="1.1"
   id="svg5"
   inkscape:version="1.1.2 (0a00cf5339, 2022-02-04)"
   sodipodi:docname="opus4.svg"
   xmlns:inkscape="http://www.inkscape.org/namespaces/inkscape"
   xmlns:sodipodi="http://sodipodi.sourceforge.net/DTD/sodipodi-0.dtd"
   xmlns:xlink="http://www.w3.org/1999/xlink"
   xmlns="http://www.w3.org/2000/svg"
   xmlns:svg="http://www.w3.org/2000/svg">
  <sodipodi:namedview
     id="namedview7"
     pagecolor="#505050"
     bordercolor="#eeeeee"
     borderopacity="1"
     inkscape:pageshadow="0"
     inkscape:pageopacity="0"
     inkscape:pagecheckerboard="0"
     inkscape:document-units="mm"
     showgrid="false"
     inkscape:zoom="0.38885732"
     inkscape:cx="223.73245"
     inkscape:cy="379.31651"
     inkscape:window-width="3440"
     inkscape:window-height="1279"
     inkscape:window-x="0"
     inkscape:window-y="40"
     inkscape:window-maximized="1"
     inkscape:current-layer="layer11" />
  <defs
     id="defs2">
    <linearGradient
       inkscape:collect="always"
       id="linearGradient55073">
      <stop
         style="stop-color:#ffbb00;stop-opacity:0.90028497"
         offset="0"
         id="stop55069" />
      <stop
         style="stop-color:#ffbb00;stop-opacity:0;"
         offset="1"
         id="stop55071" />
    </linearGradient>
    <linearGradient
       inkscape:collect="always"
       id="linearGradient49939">
      <stop
         style="stop-color:#a100ff;stop-opacity:1;"
         offset="0"
         id="stop49935" />
      <stop
         style="stop-color:#a100ff;stop-opacity:0;"
         offset="1"
         id="stop49937" />
    </linearGradient>
    <linearGradient
       id="linearGradient47119"
       inkscape:swatch="solid">
      <stop
         style="stop-color:#403900;stop-opacity:1;"
         offset="0"
         id="stop47117" />
    </linearGradient>
    <linearGradient
       id="linearGradient18334"
       inkscape:swatch="solid">
      <stop
         style="stop-color:#e16a9d;stop-opacity:1;"
         offset="0"
         id="stop18332" />
    </linearGradient>
    <radialGradient
       inkscape:collect="always"
       xlink:href="#linearGradient49939"
       id="radialGradient50327"
       cx="776.42529"
       cy="287.83075"
       fx="776.42529"
       fy="287.83075"
       r="164.77138"
       gradientTransform="matrix(1.4448495,-0.01274587,0.0096272,1.0870301,-1024.3092,-28.951103)"
       gradientUnits="userSpaceOnUse" />
    <filter
       inkscape:collect="always"
       style="color-interpolation-filters:sRGB"
       id="filter52510"
       x="-0.11238043"
       y="-0.12621517"
       width="1.2247609"
       height="1.2524303">
      <feGaussianBlur
         inkscape:collect="always"
         stdDeviation="7.6258157"
         id="feGaussianBlur52512" />
    </filter>
    <linearGradient
       inkscape:collect="always"
       xlink:href="#linearGradient55073"
       id="linearGradient55075"
       x1="15.151437"
       y1="-355.69916"
       x2="131.78549"
       y2="257.2916"
       gradientUnits="userSpaceOnUse"
       gradientTransform="matrix(0.46224077,0,0,0.46224077,54.588468,61.480752)" />
  </defs>
  <g
     inkscape:groupmode="layer"
     id="layer2"
     inkscape:label="1"
     style="display:none">
    <path
       style="fill:#9166e7;stroke:#593d91;stroke-width:0;stroke-linecap:square;stroke-linejoin:round;paint-order:stroke fill markers"
       id="path2844"
       d="m -61.18685,266.24201 c 1.67451,-0.79333 3.42735,-1.43894 5.02353,-2.37999 16.84624,-9.93198 33.74209,-19.79298 50.2823997,-30.2265 7.69703,-4.85525 26.6935503,-20.27264 32.2914503,-25.40005 15.81406,-14.48492 26.4806,-26.98815 40.95159,-42.91162 6.45571,-8.15306 13.15163,-16.12154 19.36712,-24.45918 6.1668,-8.2723 11.98075,-16.8044 17.76388,-25.34933 18.57996,-27.453005 35.47536,-55.995995 52.22141,-84.586995 5.44756,-9.27462 10.62334,-18.69979 15.61367,-28.2259299 0,0 -42.72589,19.5050799 -42.72589,19.5050799 v 0 c -3.38494,8.78091 -7.02753,17.45655 -11.20394,25.89812 -2.55506,5.11963 -5.017,10.2868 -7.66517,15.3589 -11.94,22.86888 -25.10819,45.118345 -39.52652,66.516315 -5.71651,8.48375 -11.52554,16.91474 -17.69387,25.07589 -6.27527,8.30264 -13.07818,16.19299 -19.61728,24.28948 -18.11197,19.38085 -23.51155,26.30419 -43.7625503,43.43149 -6.5448997,5.53536 -13.4904597,10.58568 -20.4326597,15.6138 -5.43926,3.93956 -22.93752,13.75796 -16.69611,11.27794 8.33759,-3.31293 39.8028697,-23.14479 24.85453,-13.75851 0,0 -39.04559,30.33109 -39.04559,30.33109 z" />
    <path
       style="fill:#9166e7;stroke:#593d91;stroke-width:0;stroke-linecap:square;stroke-linejoin:round;paint-order:stroke fill markers"
       id="path2846"
       d="m 57.4361,67.302615 c 1.45329,0.62967 3.04033,1.01302 4.35987,1.88901 3.1265,2.07555 6.05083,4.45352 8.89026,6.9072 15.49509,13.38999 21.77051,20.1329 36.04305,36.806325 23.3603,27.28986 31.34675,38.78159 53.50699,68.01915 32.083,45.42464 16.82169,23.31914 45.8769,66.25222 0,0 28.66065,-16.94897 28.66065,-16.94897 v 0 c -31.98588,-41.12697 -15.65317,-19.66643 -48.8993,-64.45671 -8.57777,-12.46297 -17.33394,-24.80502 -25.73332,-37.3889 -7.52822,-11.27873 -14.58263,-22.86782 -22.04408,-34.190835 -5.54411,-8.41338 -11.2116,-16.74615 -16.96996,-25.01437 -7.22449,-10.3734 -14.68251,-20.58955 -23.05358,-30.07379 0,0 -40.63748,28.19967 -40.63748,28.19967 z" />
    <path
       style="fill:#9166e7;stroke:#593d91;stroke-width:0;stroke-linecap:square;stroke-linejoin:round;paint-order:stroke fill markers"
       id="path2852"
       d="m 372.9307,208.22881 c -27.77794,2.4927 -55.74871,1.98209 -83.58185,1.0196 -18.18179,-0.62874 -36.36272,-1.38591 -54.51918,-2.5331 -43.17456,-2.72795 -67.45778,-5.58329 -110.12212,-9.90753 C 74.5757,190.88775 24.40364,184.83752 -25.36524,176.2948 c -15.99213,-2.74501 -21.37863,-3.98806 -36.2147,-7.0898 0,0 -34.88494,24.56207 -34.88494,24.56207 v 0 c 66.62903,6.50763 133.31583,12.40734 200.01862,18.10458 38.57911,3.45344 70.9781,6.16788 109.53109,10.37425 16.63,1.81443 33.21657,4.00762 49.83196,5.95142 12.29961,1.4389 24.61821,2.71451 36.91268,4.19662 7.93822,0.95695 15.8441,2.17086 23.78321,3.12028 3.46591,0.41448 6.95114,0.64722 10.4267,0.97082 0,0 38.89132,-28.25623 38.89132,-28.25623 z" />
  </g>
  <g
     inkscape:groupmode="layer"
     id="layer9"
     inkscape:label="3">
    <circle
       style="opacity:1;fill:#2d0040;fill-opacity:1;stroke:none;stroke-width:0;stroke-linecap:square;stroke-linejoin:round;stroke-miterlimit:4;stroke-dasharray:none;stroke-opacity:1;paint-order:markers stroke fill"
       id="path40450"
       cx="97.197495"
       cy="131.80647"
       r="73.13166" />
  </g>
  <g
     inkscape:groupmode="layer"
     id="layer8"
     inkscape:label="2" />
  <g
     inkscape:groupmode="layer"
     id="layer4"
     inkscape:label="Layer 1"
     style="display:inline" />
  <g
     inkscape:groupmode="layer"
     id="layer7"
     inkscape:label="Layer 2"
     style="display:none">
    <path
       id="path43817"
       style="opacity:1;fill:#800080;fill-opacity:1;stroke:none;stroke-width:0;stroke-linecap:square;stroke-linejoin:round;stroke-miterlimit:4;stroke-dasharray:none;stroke-opacity:1;paint-order:markers stroke fill"
       d="m 1068.123,43.119141 c -62.473,28.821702 -94.77293,44.3905 -161.25191,71.771479 -115.31049,47.49347 -232.85148,90.00526 -352.44531,125.50977 -13.22951,-27.01952 -25.81456,-53.48173 -43.16601,-89.05273 -5.59529,-11.47052 -11.3319,-22.87095 -16.99805,-34.30664 l -159.05078,93.30664 c 7.66534,10.0106 15.59382,19.82457 22.99609,30.03125 10.56858,14.57255 20.96736,29.25544 31.22266,44.03125 -9.26179,2.18293 -18.52754,4.35467 -27.8125,6.44336 -43.41419,7.03315 -86.55356,16.04372 -130.24219,21.0996 -15.81595,1.83031 -31.69229,3.10379 -47.59375,4.04688 -1.36894,-44.23543 -1.39405,-88.50649 0.42187,-132.79883 L 18.945312,267.40625 c 1.920546,16.18005 4.189108,32.31121 6.597657,48.42383 -46.460767,-3.30989 -92.699234,-9.692 -138.238279,-19.29492 l -150.78907,106.24609 c 12.2242,0.97406 24.45304,1.88277 36.67188,2.92187 16.3669,1.39189 32.68912,3.36049 49.08398,4.3711 65.37202,4.02969 106.202828,4.57691 174.1445356,1.48242 14.5447804,-0.66245 29.1043934,-1.31724 43.6542964,-2.10156 1.118499,7.56247 2.207197,15.12808 3.232422,22.70312 4.854233,35.86628 8.65056,71.86743 13.044922,107.79297 9.86033,80.61177 19.903926,161.2017 29.851563,241.80274 11.964257,97.89263 23.534161,195.85156 37.669921,293.46289 5.62716,38.8571 9.64334,67.2779 18.13672,104.5488 2.27644,9.9895 5.29643,19.7941 7.94531,29.6914 2.40489,6.4357 4.80997,12.8729 7.21485,19.3086 l 159.18554,-89.959 c -3.0286,-5.3692 -6.05538,-10.7383 -9.08398,-16.1074 -3.7105,-8.8178 -7.88318,-17.4553 -11.13281,-26.4531 -11.99169,-33.2035 -19.48535,-63.0924 -27.46875,-97.98243 C 247.05676,903.82409 231.8716,808.07965 219.00391,712.09961 206.82298,605.04868 193.88311,497.57723 187.26758,389.86133 c 19.18211,-3.76715 38.351,-7.61639 57.57812,-11.09571 59.35099,-14.14421 118.32855,-29.78491 176.92774,-46.74023 89.39662,134.44972 168.04329,275.81488 246.74218,416.75586 L 800.05664,672.66602 C 746.96826,587.51666 719.57514,545.36537 668.80078,455.9707 645.6511,415.21273 623.21899,374.04313 601.35352,332.58203 c -9.60708,-18.21686 -17.75979,-33.98325 -25.15821,-48.53515 71.24099,-23.61704 141.89005,-49.02677 211.90039,-76.01954 62.63789,-24.15029 91.15934,-36.78848 149.89649,-61.78515 z"
       transform="scale(0.26458333)" />
  </g>
  <g
     inkscape:groupmode="layer"
     id="layer10"
     inkscape:label="Layer 3"
     style="display:none">
    <path
       id="path43838"
       style="opacity:1;fill:#800080;fill-opacity:1;stroke:none;stroke-width:0;stroke-linecap:square;stroke-linejoin:round;stroke-miterlimit:4;stroke-dasharray:none;stroke-opacity:1;paint-order:markers stroke fill"
       d="m 221.29005,109.24346 -24.88195,14.14436 c 1.93896,5.47896 3.62741,11.03401 5.129,16.64291 -30.77821,4.42081 -61.64343,8.15165 -92.57797,11.14764 -1.11499,-7.2571 -1.9909,-14.55021 -2.39301,-21.89169 l -25.186173,13.92938 c 0.975323,3.38716 1.920516,6.78309 2.842374,10.18543 -2.264929,0.19055 -4.528654,0.39302 -6.794257,0.57567 -23.708637,1.62047 -47.443917,3.37795 -71.2025075,4.2292 -0.5863051,-4.96975 -1.2079484,-9.91982 -1.8983954,-14.75569 -0.829949,-5.81293 -1.4140043,-8.54949 -2.4263075,-13.6803 l -24.8650546,14.10457 c 1.47211,4.34257 2.779621,8.03905 3.958844,12.66486 0.185223,0.72658 0.362065,1.45527 0.541333,2.18333 -0.06612,2.6e-4 -0.132221,0.001 -0.19834,0.002 -4.568974,0.0168 -6.494201,-0.0899 -10.523941,-0.25374 l -22.929377,17.31833 c 8.756918,-0.21416 17.483915,-1.07996 26.212672,-1.7632 3.544295,-0.27743 7.090808,-0.52761 10.636284,-0.7891 2.640921,13.45083 4.50983,27.073 6.1599677,40.67969 0.8690335,7.16587 1.5250487,14.35771 2.2876187,21.53666 l 1.6070993,18.64228 21.3441493,-11.61428 c -0.769314,-6.09388 -1.538686,-12.18769 -2.308,-18.28157 -3.405935,-28.17254 -1.892918,-15.15819 -5.1588234,-44.25983 -0.3218964,-2.86834 -0.6415781,-5.78058 -0.9648562,-8.7111 18.4174246,-1.77015 33.3904036,-3.49789 54.8774986,-5.83272 8.058798,-0.78667 16.113632,-1.61524 24.166141,-2.46341 1.814258,7.00062 3.559025,14.02082 5.291549,21.04471 2.005121,8.12905 4.047546,16.2487 5.950692,24.40419 3.73347,15.99891 6.54111,29.62386 9.92445,45.59619 l 20.48368,-11.48767 c -1.73997,-6.98531 -3.55601,-13.95053 -5.21997,-20.95583 -4.54204,-19.12209 -6.79201,-29.70753 -10.46379,-49.10553 -0.76053,-4.01788 -1.51159,-8.0441 -2.22399,-12.07885 31.13231,-3.4818 62.22608,-7.32866 93.30721,-11.27735 3.46797,14.91392 5.84519,30.12521 8.21296,45.2453 2.35432,17.43154 1.27638,9.12322 3.25695,24.92251 l 22.95969,-12.64005 c -2.79718,-15.39161 -1.34895,-7.27184 -4.3252,-24.36337 -2.23616,-13.19511 -4.40282,-26.40557 -6.64861,-39.60069 l 10.57018,-8.21397 c -3.88772,0.60425 -7.77298,1.22543 -11.65881,1.8433 -1.55696,-9.0209 -3.16374,-18.03174 -4.87101,-27.02212 z" />
  </g>
  <g
     inkscape:groupmode="layer"
     id="layer12"
     inkscape:label="Layer 5"
     style="display:inline">
    <ellipse
       style="opacity:1;fill:url(#radialGradient50327);fill-opacity:1;stroke:none;stroke-width:0;stroke-linecap:square;stroke-linejoin:round;stroke-miterlimit:4;stroke-dasharray:none;stroke-opacity:1;paint-order:markers stroke fill"
       id="path40450-2"
       cx="97.974884"
       cy="131.73405"
       rx="76.164047"
       ry="73.13166" />
  </g>
  <g
     inkscape:groupmode="layer"
     id="layer13"
     inkscape:label="Layer 6"
     style="display:inline;filter:url(#filter52510)">
    <path
       id="path43817-2-7"
       style="display:inline;fill:#000000;fill-opacity:1;stroke:none;stroke-width:0;stroke-linecap:square;stroke-linejoin:round;stroke-miterlimit:4;stroke-dasharray:none;stroke-opacity:1;paint-order:markers stroke fill"
       d="m 186.41037,64.525933 c -7.64052,3.524933 -11.59087,5.429015 -19.72132,8.777741 -14.10259,5.808508 -28.478,11.007751 -43.10446,15.349994 -1.61803,-3.304518 -3.15715,-6.540878 -5.2793,-10.891257 -0.6843,-1.402854 -1.38589,-2.797143 -2.07883,-4.195741 l -19.4521,11.411514 c 0.93747,1.224309 1.907113,2.424568 2.812456,3.672859 1.292514,1.782238 2.564314,3.577974 3.818514,5.385072 -1.13272,0.266977 -2.2659,0.532585 -3.40148,0.788033 -5.309574,0.860161 -10.58559,1.962166 -15.92877,2.580505 -1.934292,0.22385 -3.875981,0.379597 -5.820767,0.49494 -0.167423,-5.410048 -0.170474,-10.824449 0.05159,-16.241458 l -20.2112,10.298382 c 0.234864,1.978844 0.512301,3.951701 0.806887,5.922294 -5.682233,-0.404803 -11.337241,-1.185343 -16.906734,-2.35979 L 23.553203,108.51305 c 1.495025,0.11913 2.990605,0.23026 4.484983,0.35735 2.001688,0.17023 3.997921,0.41099 6.003029,0.53459 7.995101,0.49284 12.988734,0.55977 21.298114,0.1813 1.778841,-0.081 3.559484,-0.1611 5.338972,-0.25702 0.136777,0.9249 0.269949,1.85019 0.395309,2.77662 0.593702,4.38649 1.057976,8.78947 1.595424,13.18321 0.28095,2.29704 0.567631,4.59339 0.850615,6.8902 -1.621217,0.0748 -3.242434,0.14445 -4.864113,0.20256 -0.271011,-2.29722 -0.558433,-4.58535 -0.87761,-6.82068 -0.383613,-2.68698 -0.653562,-3.95193 -1.121488,-6.3236 l -11.493664,6.51971 c 0.680464,2.00731 1.284891,3.71597 1.829965,5.85421 0.08561,0.33586 0.167239,0.67269 0.250072,1.00923 -0.03051,1.2e-4 -0.06088,4.6e-4 -0.09148,9.2e-4 -2.111932,0.008 -3.001884,-0.0416 -4.864576,-0.11728 l -10.599089,8.00523 c 4.047797,-0.099 8.081864,-0.4992 12.116625,-0.81502 1.63832,-0.12824 3.277796,-0.24389 4.916671,-0.36476 1.220732,6.21752 2.084568,12.51425 2.847311,18.80381 0.401688,3.31236 0.70501,6.63673 1.057469,9.95513 l 0.742913,8.61726 9.86602,-5.3686 c -0.355602,-2.81684 -0.711204,-5.63365 -1.066806,-8.45049 -1.574346,-13.0225 -0.874975,-7.00673 -2.384607,-20.4587 -0.148796,-1.32586 -0.296574,-2.67202 -0.44597,-4.02662 1.690091,-0.16244 3.289721,-0.32501 4.890368,-0.48825 0.698539,5.64937 1.394997,11.299 2.092241,16.94851 1.463223,11.97239 2.878234,23.95288 4.607061,35.89087 0.68823,4.75227 1.179408,8.22817 2.218155,12.78644 0.278408,1.22173 0.647784,2.42084 0.971723,3.6313 0.294123,0.78709 0.588293,1.57436 0.882417,2.36146 l 19.468567,-11.00209 c -0.370393,-0.65666 -0.740602,-1.31331 -1.110995,-1.96996 -0.453782,-1.07842 -0.964096,-2.1348 -1.36153,-3.23525 -1.466644,-4.06082 -2.383083,-7.71627 -3.359474,-11.98336 -2.642862,-11.55008 -4.500006,-23.25974 -6.073751,-34.99822 -0.389299,-3.42152 -0.783175,-6.84704 -1.169747,-10.27521 1.15893,-0.127 2.067095,-0.22715 3.311447,-0.36236 3.725106,-0.36363 7.448317,-0.74663 11.17051,-1.13869 0.838644,3.23597 1.645162,6.48099 2.445994,9.72772 0.926885,3.75758 1.871142,7.51081 2.750832,11.28061 1.72577,7.39535 3.02356,13.69336 4.58751,21.07643 l 9.46831,-5.31008 c -0.8043,-3.2289 -1.64369,-6.4485 -2.41285,-9.68664 -2.0995,-8.83901 -3.13959,-13.73203 -4.83685,-22.69858 -0.35158,-1.85723 -0.69881,-3.71831 -1.02811,-5.58333 6.52892,-0.73019 13.05391,-1.49865 19.57654,-2.28694 3.75201,6.55547 7.43223,13.15282 11.11222,19.74328 L 152.66,142.079 c 0.38426,2.33203 0.75123,4.66599 1.11603,6.9953 1.08826,8.05757 0.58982,4.21712 1.50534,11.5202 l 10.61295,-5.84275 c -1.29293,-7.11463 -0.62356,-3.36134 -1.99933,-11.26174 -1.03361,-6.09932 -2.0352,-12.20573 -3.0733,-18.30506 l 4.88607,-3.79682 c -1.79705,0.27931 -3.5929,0.56644 -5.38912,0.85204 -0.71967,-4.16983 -1.4624,-8.335 -2.25158,-12.49073 v -2.3e-4 l -11.50157,6.53809 c 0.89629,2.5326 1.67692,5.10037 2.37102,7.69304 -1.89121,0.27165 -3.78339,0.53678 -5.67599,0.7971 -1.72079,-2.86945 -3.52759,-5.95601 -5.68774,-9.75925 -2.83122,-4.98474 -5.57471,-10.01985 -8.24887,-15.090594 -1.17497,-2.227945 -2.17207,-4.156197 -3.0769,-5.935911 8.71287,-2.88839 17.35335,-5.99603 25.91566,-9.297276 7.66072,-2.953612 11.14893,-4.49928 18.33252,-7.556402 z m -79.04932,35.333584 c 5.92565,8.912023 11.45923,18.075983 16.82284,27.341973 -6.00761,0.70185 -12.02127,1.34875 -18.04084,1.93174 -0.5154,-3.35453 -0.92033,-6.7257 -1.10619,-10.11923 l -11.642035,6.43873 c 0.450823,1.56568 0.887872,3.13542 1.314012,4.70812 -1.046929,0.0881 -2.093396,0.18167 -3.140649,0.2661 -3.569192,0.24395 -7.140141,0.49021 -10.711875,0.73094 -0.879459,-8.06111 -1.678858,-16.13632 -2.175629,-24.22497 2.346011,-0.46073 4.690404,-0.93149 7.041869,-1.35701 7.258705,-1.72986 14.471737,-3.64273 21.638497,-5.716393 z m 42.6186,28.300563 c 0.84867,3.6497 1.55405,7.33806 2.19426,11.03816 -2.44724,-3.91442 -4.55446,-7.27201 -6.53022,-10.49163 1.44529,-0.18252 2.89081,-0.36294 4.33596,-0.54653 z" />
  </g>
  <g
     inkscape:groupmode="layer"
     id="layer11"
     inkscape:label="Layer 4">
    <path
       id="path43817-2"
       style="display:inline;fill:#b8610c;fill-opacity:1;stroke:none;stroke-width:0;stroke-linecap:square;stroke-linejoin:round;stroke-miterlimit:4;stroke-dasharray:none;stroke-opacity:1;paint-order:markers stroke fill"
       sodipodi:type="inkscape:offset"
       inkscape:radius="0"
       inkscape:original="M 287.83203 -4.9355469 C 271.30272 2.6901961 262.7572 6.8081836 245.16797 14.052734 C 214.65876 26.618715 183.55854 37.867818 151.91602 47.261719 C 148.41571 40.112805 145.08701 33.110713 140.49609 23.699219 C 139.01567 20.664311 137.4972 17.64874 135.99805 14.623047 L 93.916016 39.310547 C 95.944126 41.959185 98.041476 44.555342 100 47.255859 C 102.79628 51.111513 105.54834 54.996817 108.26172 58.90625 C 105.81123 59.483817 103.35899 60.058696 100.90234 60.611328 C 89.415694 62.472183 78.002635 64.855657 66.443359 66.193359 C 62.258709 66.677628 58.058834 67.014146 53.851562 67.263672 C 53.489374 55.559717 53.482434 43.845965 53.962891 32.126953 L 10.238281 54.40625 C 10.746413 58.687224 11.345173 62.955619 11.982422 67.21875 C -0.31030484 66.343008 -12.54291 64.654053 -24.591797 62.113281 L -64.488281 90.224609 C -61.253988 90.482329 -58.018073 90.723116 -54.785156 90.998047 C -50.454747 91.366318 -46.136619 91.886907 -41.798828 92.154297 C -24.502487 93.220489 -13.698924 93.365625 4.2773438 92.546875 C 8.1256289 92.371607 11.976484 92.197744 15.826172 91.990234 C 16.122082 93.991135 16.41039 95.993815 16.681641 97.998047 C 17.965981 107.48766 18.972108 117.01228 20.134766 126.51758 C 20.74262 131.48694 21.362442 136.45499 21.974609 141.42383 C 18.467318 141.58569 14.959467 141.73563 11.451172 141.86133 C 10.864855 136.89158 10.243191 131.94134 9.5527344 127.10547 C 8.7227894 121.29254 8.1392754 118.55659 7.1269531 113.42578 L -17.738281 127.53125 C -16.266166 131.87382 -14.958518 135.5695 -13.779297 140.19531 C -13.594062 140.92189 -13.417563 141.65085 -13.238281 142.37891 C -13.304371 142.37917 -13.371381 142.37986 -13.4375 142.38086 C -18.006484 142.39766 -19.931228 142.29078 -23.960938 142.12695 L -46.890625 159.44531 C -38.133711 159.23115 -29.406497 158.36488 -20.677734 157.68164 C -17.133455 157.40421 -13.586486 157.15407 -10.041016 156.89258 C -7.4000776 170.34341 -5.5310127 183.96558 -3.8808594 197.57227 C -3.0118354 204.73814 -2.3563321 211.93043 -1.59375 219.10938 L 0.013671875 237.75195 L 21.357422 226.13672 C 20.588093 220.04284 19.818131 213.94935 19.048828 207.85547 C 15.642874 179.68293 17.156536 192.69734 13.890625 163.5957 C 13.568733 160.72736 13.249075 157.81529 12.925781 154.88477 C 16.582164 154.53335 20.043072 154.18128 23.505859 153.82812 C 25.017027 166.04984 26.522834 178.27214 28.03125 190.49414 C 31.196778 216.3949 34.25795 242.3143 37.998047 268.14062 C 39.486884 278.42156 40.549689 285.93952 42.796875 295.80078 C 43.399199 298.44383 44.199536 301.03954 44.900391 303.6582 C 45.536687 305.36098 46.172298 307.06284 46.808594 308.76562 L 88.925781 284.96484 C 88.124464 283.54424 87.324754 282.12369 86.523438 280.70312 C 85.541701 278.37009 84.437941 276.0838 83.578125 273.70312 C 80.405321 264.91803 78.422822 257.01061 76.310547 247.7793 C 70.593087 222.79216 66.574501 197.45917 63.169922 172.06445 C 62.327647 164.66241 61.474914 157.25235 60.638672 149.83594 C 63.145811 149.56119 65.110677 149.34525 67.802734 149.05273 C 75.861518 148.26606 83.916236 147.43606 91.96875 146.58789 C 93.783024 153.58851 95.529201 160.60892 97.261719 167.63281 C 99.266837 175.76186 101.30974 183.88162 103.21289 192.03711 C 106.94637 208.03602 109.75336 221.66047 113.13672 237.63281 L 133.61914 226.14648 C 131.87919 219.16117 130.06436 212.19475 128.40039 205.18945 C 123.85837 186.06736 121.60733 175.48198 117.93555 156.08398 C 117.175 152.0661 116.42531 148.04061 115.71289 144.00586 C 129.83733 142.4262 143.95153 140.76395 158.0625 139.05859 C 166.17942 153.24052 174.14229 167.51188 182.10352 181.76953 L 214.81836 162.83984 C 215.6496 167.88488 216.4433 172.93545 217.23242 177.97461 C 219.58674 195.40615 218.50769 187.09719 220.48828 202.89648 L 243.44922 190.25586 C 240.65204 174.86425 242.09932 182.98411 239.12305 165.89258 C 236.8869 152.69747 234.72042 139.48809 232.47461 126.29297 L 243.04492 118.07812 C 239.15721 118.68237 235.27255 119.30401 231.38672 119.92188 C 229.82975 110.90098 228.2229 101.88882 226.51562 92.898438 L 201.63281 107.04297 C 203.57179 112.52193 205.26205 118.07665 206.76367 123.68555 C 202.6722 124.27323 198.5769 124.84698 194.48242 125.41016 C 190.75979 119.20246 186.85098 112.52472 182.17773 104.29688 C 176.05273 93.512998 170.1192 82.620301 164.33398 71.650391 C 161.7921 66.830513 159.63522 62.658784 157.67773 58.808594 C 176.52691 52.559919 195.21863 45.83715 213.74219 38.695312 C 230.31513 32.305548 237.86149 28.963311 253.40234 22.349609 L 287.83203 -4.9355469 z M 116.82031 71.503906 C 129.63974 90.783948 141.60941 110.60849 153.21289 130.6543 C 140.21614 132.17265 127.20624 133.57275 114.18359 134.83398 C 113.06861 127.57688 112.19313 120.2829 111.79102 112.94141 L 86.605469 126.87109 C 87.580776 130.25825 88.525405 133.6543 89.447266 137.05664 C 87.182353 137.24719 84.919924 137.45016 82.654297 137.63281 C 74.932829 138.16056 67.207466 138.69405 59.480469 139.21484 C 57.577903 121.77564 55.848149 104.30539 54.773438 86.806641 C 59.848728 85.80991 64.920642 84.791664 70.007812 83.871094 C 85.711072 80.128764 101.31594 75.990006 116.82031 71.503906 z M 209.01953 132.72852 C 210.85556 140.62418 212.38062 148.60272 213.76562 156.60742 C 208.47126 148.13908 203.91296 140.87541 199.63867 133.91016 C 202.76533 133.5153 205.89316 133.1257 209.01953 132.72852 z "
       d="m 287.83203,-4.9355469 c -16.52931,7.625743 -25.07483,11.7437305 -42.66406,18.9882809 -30.50921,12.565981 -61.60943,23.815084 -93.25195,33.208985 -3.50031,-7.148914 -6.82901,-14.151006 -11.41993,-23.5625 -1.48042,-3.034908 -2.99889,-6.050479 -4.49804,-9.076172 l -42.082034,24.6875 c 2.02811,2.648638 4.12546,5.244795 6.083984,7.945312 2.79628,3.855654 5.54834,7.740958 8.26172,11.650391 -2.45049,0.577567 -4.90273,1.152446 -7.35938,1.705078 -11.486646,1.860855 -22.899705,4.244329 -34.458981,5.582031 -4.18465,0.484269 -8.384525,0.820787 -12.591797,1.070313 C 53.489374,55.559717 53.482434,43.845965 53.962891,32.126953 L 10.238281,54.40625 c 0.508132,4.280974 1.106892,8.549369 1.744141,12.8125 -12.29272684,-0.875742 -24.525332,-2.564697 -36.574219,-5.105469 l -39.896484,28.111328 c 3.234293,0.25772 6.470208,0.498507 9.703125,0.773438 4.330409,0.368271 8.648537,0.88886 12.986328,1.15625 17.296341,1.066192 28.099904,1.211328 46.0761718,0.392578 3.8482851,-0.175268 7.6991402,-0.349131 11.5488282,-0.556641 0.29591,2.000901 0.584218,4.003581 0.855469,6.007813 1.28434,9.489613 2.290467,19.014233 3.453125,28.519533 0.607854,4.96936 1.227676,9.93741 1.839843,14.90625 -3.507291,0.16186 -7.015142,0.3118 -10.523437,0.4375 -0.586317,-4.96975 -1.207981,-9.91999 -1.8984376,-14.75586 -0.829945,-5.81293 -1.413459,-8.54888 -2.4257813,-13.67969 l -24.8652341,14.10547 c 1.472115,4.34257 2.779763,8.03825 3.958984,12.66406 0.185235,0.72658 0.361734,1.45554 0.541016,2.1836 -0.06609,2.6e-4 -0.1331,9.5e-4 -0.199219,0.002 -4.568984,0.0168 -6.493728,-0.0901 -10.523438,-0.25391 l -22.929687,17.31836 c 8.756914,-0.21416 17.484128,-1.08043 26.212891,-1.76367 3.544279,-0.27743 7.091248,-0.52757 10.636718,-0.78906 2.6409384,13.45083 4.5100033,27.073 6.1601566,40.67969 0.869024,7.16587 1.5245273,14.35816 2.2871094,21.53711 L 0.01367188,237.75195 21.357422,226.13672 c -0.769329,-6.09388 -1.539291,-12.18737 -2.308594,-18.28125 -3.405954,-28.17254 -1.892292,-15.15813 -5.158203,-44.25977 -0.321892,-2.86834 -0.64155,-5.78041 -0.964844,-8.71093 3.656383,-0.35142 7.117291,-0.70349 10.580078,-1.05665 1.511168,12.22172 3.016975,24.44402 4.525391,36.66602 3.165528,25.90076 6.2267,51.82016 9.966797,77.64648 1.488837,10.28094 2.551642,17.7989 4.798828,27.66016 0.602324,2.64305 1.402661,5.23876 2.103516,7.85742 0.636296,1.70278 1.271907,3.40464 1.908203,5.10742 l 42.117187,-23.80078 c -0.801317,-1.4206 -1.601027,-2.84115 -2.402343,-4.26172 -0.981737,-2.33303 -2.085497,-4.61932 -2.945313,-7 -3.172804,-8.78509 -5.155303,-16.69251 -7.267578,-25.92382 -5.71746,-24.98714 -9.736046,-50.32013 -13.140625,-75.71485 -0.842275,-7.40204 -1.695008,-14.8121 -2.53125,-22.22851 2.507139,-0.27475 4.472005,-0.49069 7.164062,-0.78321 8.058784,-0.78667 16.113502,-1.61667 24.166016,-2.46484 1.814274,7.00062 3.560451,14.02103 5.292969,21.04492 2.005118,8.12905 4.048021,16.24881 5.951171,24.4043 3.73348,15.99891 6.54047,29.62336 9.92383,45.5957 l 20.48242,-11.48633 c -1.73995,-6.98531 -3.55478,-13.95173 -5.21875,-20.95703 -4.54202,-19.12209 -6.79306,-29.70747 -10.46484,-49.10547 -0.76055,-4.01788 -1.51024,-8.04337 -2.22266,-12.07812 14.12444,-1.57966 28.23864,-3.24191 42.34961,-4.94727 8.11692,14.18193 16.07979,28.45329 24.04102,42.71094 l 32.71484,-18.92969 c 0.83124,5.04504 1.62494,10.09561 2.41406,15.13477 2.35432,17.43154 1.27527,9.12258 3.25586,24.92187 l 22.96094,-12.64062 c -2.79718,-15.39161 -1.3499,-7.27175 -4.32617,-24.36328 -2.23615,-13.19511 -4.40263,-26.40449 -6.64844,-39.59961 l 10.57031,-8.21485 c -3.88771,0.60425 -7.77237,1.22589 -11.6582,1.84376 -1.55697,-9.0209 -3.16382,-18.03306 -4.8711,-27.023442 l -24.88281,14.144532 c 1.93898,5.47896 3.62924,11.03368 5.13086,16.64258 -4.09147,0.58768 -8.18677,1.16143 -12.28125,1.72461 -3.72263,-6.2077 -7.63144,-12.88544 -12.30469,-21.11328 -6.125,-10.783882 -12.05853,-21.676579 -17.84375,-32.646489 -2.54188,-4.819878 -4.69876,-8.991607 -6.65625,-12.841797 18.84918,-6.248675 37.5409,-12.971444 56.06446,-20.113282 16.57294,-6.389764 24.1193,-9.732001 39.66015,-16.345703 z M 116.82031,71.503906 c 12.81943,19.280042 24.7891,39.104584 36.39258,59.150394 -12.99675,1.51835 -26.00665,2.91845 -39.0293,4.17968 -1.11498,-7.2571 -1.99046,-14.55108 -2.39257,-21.89257 l -25.185551,13.92968 c 0.975307,3.38716 1.919936,6.78321 2.841797,10.18555 -2.264913,0.19055 -4.527342,0.39352 -6.792969,0.57617 -7.721468,0.52775 -15.446831,1.06124 -23.173828,1.58203 -1.902566,-17.4392 -3.63232,-34.90945 -4.707031,-52.408199 5.07529,-0.996731 10.147204,-2.014977 15.234374,-2.935547 15.70326,-3.74233 31.308128,-7.881088 46.812498,-12.367188 z m 92.19922,61.224614 c 1.83603,7.89566 3.36109,15.8742 4.74609,23.8789 -5.29436,-8.46834 -9.85266,-15.73201 -14.12695,-22.69726 3.12666,-0.39486 6.25449,-0.78446 9.38086,-1.18164 z"
       transform="matrix(0.46224077,0,0,0.46224077,54.588468,61.480752)" />
    <path
       id="path43817-2-1"
       style="display:inline;fill:#520080;fill-opacity:1;stroke:none;stroke-width:0;stroke-linecap:square;stroke-linejoin:round;stroke-miterlimit:4;stroke-dasharray:none;stroke-opacity:1;paint-order:markers stroke fill"
       d="m 185.39469,55.314645 c -7.64052,3.524929 -11.59086,5.429012 -19.72131,8.777739 -14.10261,5.808509 -28.47803,11.007751 -43.10449,15.349995 -1.61798,-3.30452 -3.15714,-6.54088 -5.27925,-10.891256 -0.68432,-1.402858 -1.38591,-2.797145 -2.07888,-4.195744 L 95.758658,75.766894 c 0.937475,1.224308 1.90714,2.424569 2.81245,3.672858 1.292554,1.78224 2.564322,3.577975 3.818562,5.385075 -1.13272,0.266975 -2.26594,0.532581 -3.401501,0.78803 -5.309598,0.860163 -10.585598,1.962168 -15.928767,2.580508 -1.934316,0.223849 -3.876006,0.379596 -5.820779,0.494937 -0.167418,-5.410045 -0.170488,-10.82445 0.0516,-16.241455 L 57.078994,82.745228 c 0.23488,1.978841 0.512332,3.9517 0.806895,5.922293 -5.6822,-0.404804 -11.337223,-1.185344 -16.906712,-2.359792 L 22.537504,99.301753 c 1.495021,0.119129 2.990628,0.230265 4.485016,0.35735 2.001692,0.17023 3.997916,0.410987 6.003019,0.534587 7.995074,0.49284 12.98873,0.55976 21.298095,0.1813 1.778834,-0.081 3.559491,-0.1611 5.338973,-0.25702 0.136782,0.9249 0.269943,1.85018 0.395327,2.77662 0.593674,4.38649 1.057979,8.78947 1.595407,13.18321 0.280974,2.29704 0.567648,4.59339 0.850617,6.89019 -1.621213,0.0748 -3.242425,0.14446 -4.864102,0.20257 -0.27102,-2.29723 -0.558453,-4.58535 -0.877609,-6.82069 -0.383635,-2.68697 -0.653554,-3.95192 -1.12149,-6.32359 l -11.493682,6.5197 c 0.680469,2.00732 1.284895,3.71598 1.829979,5.85422 0.08562,0.33585 0.16722,0.67268 0.250095,1.00922 -0.03055,1.2e-4 -0.06092,4.7e-4 -0.09148,9.3e-4 -2.111973,0.008 -3.001884,-0.0416 -4.86458,-0.11729 l -10.599126,8.00524 c 4.047806,-0.099 8.081874,-0.4992 12.116662,-0.81503 1.638311,-0.12824 3.277782,-0.24388 4.916643,-0.36475 1.22075,6.21752 2.084562,12.51424 2.847334,18.80381 0.401696,3.31236 0.704979,6.63672 1.057476,9.95513 l 0.742882,8.61725 9.866026,-5.3686 c -0.355616,-2.81684 -0.711182,-5.63364 -1.066785,-8.45048 -1.574371,-13.0225 -0.875004,-7.00674 -2.384641,-20.4587 -0.148792,-1.32586 -0.296532,-2.67202 -0.445971,-4.02663 1.690129,-0.16244 3.289743,-0.325 4.890385,-0.48824 0.698523,5.64937 1.395004,11.299 2.092255,16.94851 1.463236,11.97239 2.878249,23.95288 4.607074,35.89086 0.688201,4.75227 1.1794,8.22817 2.218141,12.78645 0.278418,1.22172 0.647756,2.42084 0.971719,3.63129 0.294122,0.7871 0.588269,1.57437 0.882391,2.36147 l 19.468578,-11.0021 c -0.370401,-0.65666 -0.740582,-1.31331 -1.110984,-1.96995 -0.453799,-1.07843 -0.964112,-2.13481 -1.361554,-3.23525 -1.4666,-4.06082 -2.383076,-7.71628 -3.359456,-11.98336 -2.642843,-11.55008 -4.499999,-23.25974 -6.073734,-34.99822 -0.389334,-3.42152 -0.783205,-6.84704 -1.16975,-10.27521 1.158902,-0.127 2.067073,-0.22715 3.311452,-0.36236 3.725098,-0.36363 7.44829,-0.74664 11.17049,-1.1387 0.838631,3.23598 1.645184,6.481 2.446024,9.72773 0.926848,3.75757 1.87111,7.51081 2.75082,11.28061 1.72577,7.39535 3.02357,13.69335 4.5875,21.07642 l 9.4683,-5.31007 c -0.80428,-3.2289 -1.64367,-6.44851 -2.41282,-9.68664 -2.09951,-8.83901 -3.13962,-13.73203 -4.83687,-22.69858 -0.35155,-1.85723 -0.69879,-3.71831 -1.0281,-5.58334 6.52889,-0.73018 13.05389,-1.49865 19.57656,-2.28693 3.75197,6.55546 7.43221,13.15281 11.11221,19.74328 l 15.12212,-8.75027 c 0.38423,2.33202 0.75123,4.66599 1.116,6.99529 1.08826,8.05757 0.58984,4.21713 1.50535,11.5202 l 10.61297,-5.84274 c -1.29297,-7.11463 -0.62359,-3.36134 -1.99934,-11.26174 -1.03364,-6.09932 -2.03519,-12.20574 -3.0733,-18.30506 l 4.88608,-3.79683 c -1.79706,0.27931 -3.59293,0.56644 -5.38912,0.85205 -0.7197,-4.16983 -1.46242,-8.33501 -2.2516,-12.49073 v -2.4e-4 l -11.50157,6.5381 c 0.89628,2.5326 1.67692,5.10037 2.37103,7.69303 -1.89124,0.27165 -3.78339,0.53679 -5.67602,0.79711 -1.72075,-2.86945 -3.52756,-5.95601 -5.68773,-9.75925 -2.83122,-4.98475 -5.57471,-10.019846 -8.24887,-15.090586 -1.17496,-2.227944 -2.17205,-4.156192 -3.07688,-5.935907 8.71286,-2.888392 17.35333,-5.996032 25.91568,-9.29728 7.66068,-2.953609 11.14889,-4.499277 18.3325,-7.556399 z m -79.04934,35.333581 c 5.92567,8.912022 11.45926,18.075974 16.82286,27.341964 -6.00762,0.70184 -12.02125,1.34875 -18.04085,1.93174 -0.51539,-3.35453 -0.92033,-6.7257 -1.1062,-10.11923 l -11.642027,6.43873 c 0.450826,1.56568 0.887894,3.13541 1.314016,4.70811 -1.046935,0.0881 -2.093393,0.18168 -3.140658,0.26611 -3.569177,0.24394 -7.140128,0.49021 -10.711861,0.73094 -0.879443,-8.06111 -1.678853,-16.13632 -2.175628,-24.224958 2.346006,-0.46073 4.690386,-0.931493 7.041883,-1.357018 7.258686,-1.729858 14.471718,-3.642729 21.638465,-5.716388 z m 42.61862,28.300554 c 0.84869,3.64969 1.55406,7.33805 2.19427,11.03815 -2.44727,-3.91441 -4.55447,-7.272 -6.53022,-10.49162 1.44527,-0.18252 2.89082,-0.36294 4.33595,-0.54653 z" />
  </g>
  <g
     inkscape:groupmode="layer"
     id="layer14"
     inkscape:label="Layer 7">
    <path
       id="path43817-2-1-0"
       style="display:inline;fill:url(#linearGradient55075);fill-opacity:1;stroke:none;stroke-width:0;stroke-linecap:square;stroke-linejoin:round;stroke-miterlimit:4;stroke-dasharray:none;stroke-opacity:1;paint-order:markers stroke fill"
       d="m 185.39469,55.314642 c -7.64052,3.524933 -11.59086,5.429015 -19.72131,8.777741 -14.10261,5.808509 -28.47803,11.007751 -43.10449,15.349995 -1.61798,-3.30452 -3.15714,-6.54088 -5.27925,-10.891256 -0.68432,-1.402858 -1.38591,-2.797145 -2.07888,-4.195743 L 95.758659,75.766893 c 0.937475,1.224309 1.907136,2.424569 2.812449,3.672858 1.292554,1.78224 2.564322,3.577975 3.818562,5.385075 -1.13272,0.266975 -2.26594,0.532581 -3.401501,0.78803 -5.309598,0.860163 -10.5856,1.962168 -15.928766,2.580508 -1.934316,0.223849 -3.876009,0.379596 -5.820781,0.494937 -0.167419,-5.410045 -0.170488,-10.82445 0.0516,-16.241455 L 57.078994,82.745227 c 0.234878,1.978841 0.512334,3.9517 0.806892,5.922293 C 52.20369,88.262716 46.548664,87.482176 40.979175,86.307728 L 22.537502,99.301754 c 1.495021,0.119129 2.990628,0.230265 4.485016,0.357349 2.001692,0.17023 3.997916,0.410987 6.003019,0.534587 7.995074,0.49284 12.98873,0.55976 21.298095,0.1813 1.778837,-0.081 3.55949,-0.1611 5.338973,-0.25702 0.136782,0.9249 0.269944,1.85018 0.395327,2.77662 0.593675,4.38649 1.057982,8.78947 1.595406,13.18321 0.280977,2.29704 0.56765,4.59339 0.85062,6.89019 -1.621213,0.0748 -3.242425,0.14446 -4.864104,0.20257 -0.271017,-2.29723 -0.558452,-4.58535 -0.877606,-6.82069 -0.383637,-2.68697 -0.653558,-3.95192 -1.121493,-6.32359 l -11.493682,6.5197 c 0.680469,2.00732 1.284896,3.71598 1.829979,5.85422 0.08562,0.33585 0.16722,0.67268 0.250095,1.00922 -0.03055,1.2e-4 -0.06092,4.7e-4 -0.09148,9.3e-4 -2.111973,0.008 -3.001884,-0.0416 -4.86458,-0.11729 l -10.599125,8.00524 c 4.047805,-0.099 8.081873,-0.4992 12.116662,-0.81503 1.63831,-0.12824 3.277781,-0.24388 4.916642,-0.36475 1.22075,6.21752 2.084563,12.51424 2.847334,18.80381 0.401696,3.31236 0.704982,6.63672 1.057477,9.95513 l 0.742881,8.61725 9.866026,-5.3686 c -0.355616,-2.81684 -0.711181,-5.63364 -1.066783,-8.45048 -1.574373,-13.0225 -0.875003,-7.00674 -2.38464,-20.4587 -0.148795,-1.32586 -0.296532,-2.67202 -0.445974,-4.02663 1.690132,-0.16244 3.289744,-0.325 4.890387,-0.48824 0.698524,5.64937 1.395001,11.299 2.092254,16.94851 1.463237,11.97239 2.878249,23.95288 4.607076,35.89086 0.688197,4.75227 1.179398,8.22817 2.21814,12.78645 0.278417,1.22172 0.647757,2.42084 0.971718,3.63129 0.294124,0.7871 0.588271,1.57437 0.88239,2.36147 l 19.468578,-11.0021 c -0.370398,-0.65666 -0.740583,-1.31331 -1.110981,-1.96995 -0.453801,-1.07843 -0.964114,-2.13481 -1.361558,-3.23525 -1.466598,-4.06082 -2.383073,-7.71628 -3.359455,-11.98336 -2.642843,-11.55008 -4.499997,-23.25974 -6.073733,-34.99822 -0.389331,-3.42152 -0.783207,-6.84704 -1.169751,-10.27521 1.158902,-0.127 2.067076,-0.22715 3.311451,-0.36236 3.725101,-0.36363 7.448294,-0.74664 11.170492,-1.1387 0.83863,3.23598 1.645184,6.481 2.446026,9.72773 0.926848,3.75757 1.871109,7.51081 2.750819,11.28061 1.72577,7.39535 3.02357,13.69335 4.5875,21.07642 l 9.4683,-5.31007 c -0.80428,-3.2289 -1.64367,-6.44851 -2.41282,-9.68664 -2.09951,-8.83901 -3.13962,-13.73203 -4.83687,-22.69858 -0.35155,-1.85723 -0.69879,-3.71831 -1.0281,-5.58334 6.52889,-0.73018 13.05389,-1.49865 19.57656,-2.28693 3.75197,6.55546 7.43221,13.15281 11.11221,19.74328 l 15.12212,-8.75027 c 0.38423,2.33202 0.75123,4.66599 1.116,6.99529 1.08826,8.05757 0.58984,4.21713 1.50535,11.5202 l 10.61297,-5.84274 c -1.29297,-7.11463 -0.62359,-3.36134 -1.99934,-11.26174 -1.03364,-6.09932 -2.03519,-12.20574 -3.0733,-18.30506 l 4.88608,-3.79683 c -1.79706,0.27931 -3.59293,0.56644 -5.38912,0.85205 -0.7197,-4.16983 -1.46242,-8.33501 -2.2516,-12.49073 v -2.4e-4 l -11.50157,6.5381 c 0.89628,2.5326 1.67692,5.10037 2.37103,7.69303 -1.89124,0.27165 -3.78339,0.53679 -5.67602,0.79711 -1.72075,-2.86945 -3.52756,-5.95601 -5.68773,-9.75925 -2.83122,-4.98475 -5.57471,-10.019848 -8.24887,-15.090587 -1.17496,-2.227944 -2.17205,-4.156192 -3.07688,-5.935907 8.71286,-2.888392 17.35333,-5.996032 25.91568,-9.297279 7.66068,-2.95361 11.14889,-4.499277 18.3325,-7.5564 z m -79.04934,35.333584 c 5.92567,8.912022 11.45926,18.075974 16.82286,27.341964 -6.00762,0.70184 -12.02125,1.34875 -18.04085,1.93174 -0.51539,-3.35453 -0.92033,-6.7257 -1.1062,-10.11923 l -11.642026,6.43873 c 0.450823,1.56568 0.887895,3.13541 1.314016,4.70811 -1.046938,0.0881 -2.093396,0.18168 -3.140658,0.26611 -3.569178,0.24394 -7.140131,0.49021 -10.711861,0.73094 -0.879446,-8.06111 -1.678854,-16.13632 -2.175629,-24.22496 2.346006,-0.460729 4.690385,-0.931493 7.041882,-1.357018 7.258687,-1.729858 14.471719,-3.642726 21.638466,-5.716386 z m 42.61862,28.300554 c 0.84869,3.64969 1.55406,7.33805 2.19427,11.03815 -2.44727,-3.91441 -4.55447,-7.272 -6.53022,-10.49162 1.44527,-0.18252 2.89082,-0.36294 4.33595,-0.54653 z" />
  </g>
</svg>
