<?xml version="1.0" encoding="UTF-8" standalone="no"?>
<!-- Created with Inkscape (http://www.inkscape.org/) -->

<svg
   width="210mm"
   height="297mm"
   viewBox="0 0 210 297"
   version="1.1"
   id="svg5"
   inkscape:version="1.1.2 (0a00cf5339, 2022-02-04)"
   sodipodi:docname="oro_logo_small.svg"
   inkscape:export-filename="/home/desktop/Documents/oro_logo/oro_logo_small.png"
   inkscape:export-xdpi="96"
   inkscape:export-ydpi="96"
   xmlns:inkscape="http://www.inkscape.org/namespaces/inkscape"
   xmlns:sodipodi="http://sodipodi.sourceforge.net/DTD/sodipodi-0.dtd"
   xmlns:xlink="http://www.w3.org/1999/xlink"
   xmlns="http://www.w3.org/2000/svg"
   xmlns:svg="http://www.w3.org/2000/svg">
  <sodipodi:namedview
     id="namedview7"
     pagecolor="#505050"
     bordercolor="#eeeeee"
     borderopacity="1"
     inkscape:pageshadow="0"
     inkscape:pageopacity="0"
     inkscape:pagecheckerboard="0"
     inkscape:document-units="mm"
     showgrid="false"
     inkscape:zoom="0.32"
     inkscape:cx="353.125"
     inkscape:cy="543.75"
     inkscape:window-width="3440"
     inkscape:window-height="1287"
     inkscape:window-x="0"
     inkscape:window-y="32"
     inkscape:window-maximized="1"
     inkscape:current-layer="layer1" />
  <defs
     id="defs2">
    <linearGradient
       id="linearGradient37822"
       inkscape:swatch="solid">
      <stop
         style="stop-color:#ff7f2a;stop-opacity:1;"
         offset="0"
         id="stop37820" />
    </linearGradient>
    <linearGradient
       id="linearGradient36352"
       inkscape:swatch="solid">
      <stop
         style="stop-color:#000000;stop-opacity:1;"
         offset="0"
         id="stop36350" />
    </linearGradient>
    <linearGradient
       inkscape:collect="always"
       id="linearGradient35266">
      <stop
         style="stop-color:#ff7f2a;stop-opacity:1;"
         offset="0"
         id="stop35262" />
      <stop
         style="stop-color:#ff7f2a;stop-opacity:0;"
         offset="1"
         id="stop35264" />
    </linearGradient>
    <linearGradient
       id="linearGradient34993"
       inkscape:swatch="solid">
      <stop
         style="stop-color:#ff7f2a;stop-opacity:1;"
         offset="0"
         id="stop34991" />
    </linearGradient>
    <linearGradient
       id="linearGradient34831"
       inkscape:swatch="solid">
      <stop
         style="stop-color:#ff7f2a;stop-opacity:1;"
         offset="0"
         id="stop34829" />
    </linearGradient>
    <linearGradient
       id="linearGradient34688"
       inkscape:swatch="solid">
      <stop
         style="stop-color:#000000;stop-opacity:1;"
         offset="0"
         id="stop34686" />
    </linearGradient>
    <linearGradient
       id="linearGradient34682"
       inkscape:swatch="solid">
      <stop
         style="stop-color:#000000;stop-opacity:1;"
         offset="0"
         id="stop34680" />
    </linearGradient>
    <linearGradient
       id="linearGradient27467"
       inkscape:swatch="solid">
      <stop
         style="stop-color:#ff7f2a;stop-opacity:1;"
         offset="0"
         id="stop27465" />
    </linearGradient>
    <linearGradient
       id="linearGradient26978"
       inkscape:swatch="solid">
      <stop
         style="stop-color:#ff6600;stop-opacity:1;"
         offset="0"
         id="stop26976" />
    </linearGradient>
    <linearGradient
       id="linearGradient22631"
       inkscape:swatch="solid">
      <stop
         style="stop-color:#000000;stop-opacity:1;"
         offset="0"
         id="stop22629" />
    </linearGradient>
    <linearGradient
       id="linearGradient20149"
       inkscape:swatch="solid">
      <stop
         style="stop-color:#d40055;stop-opacity:1;"
         offset="0"
         id="stop20147" />
    </linearGradient>
    <linearGradient
       id="linearGradient18299"
       inkscape:swatch="solid">
      <stop
         style="stop-color:#499fa0;stop-opacity:1;"
         offset="0"
         id="stop18297" />
    </linearGradient>
    <linearGradient
       id="linearGradient11679"
       inkscape:swatch="solid">
      <stop
         style="stop-color:#ff0000;stop-opacity:1;"
         offset="0"
         id="stop11677" />
    </linearGradient>
    <linearGradient
       id="linearGradient1074"
       inkscape:swatch="solid">
      <stop
         style="stop-color:#ff7f2a;stop-opacity:1;"
         offset="0"
         id="stop1072" />
    </linearGradient>
    <linearGradient
       inkscape:collect="always"
       xlink:href="#linearGradient20149"
       id="linearGradient22633"
       x1="21.559162"
       y1="155.15913"
       x2="186.23837"
       y2="155.15913"
       gradientUnits="userSpaceOnUse"
       gradientTransform="translate(-988.83339,230.92579)" />
    <linearGradient
       inkscape:collect="always"
       xlink:href="#linearGradient35266"
       id="linearGradient35268"
       x1="102.16831"
       y1="345.58441"
       x2="25.751993"
       y2="418.53656"
       gradientUnits="userSpaceOnUse"
       gradientTransform="translate(44.49293,-236.04486)" />
  </defs>
  <g
     inkscape:label="Layer 1"
     inkscape:groupmode="layer"
     id="layer1">
    <rect
       style="opacity:1;fill:#2ca089;fill-opacity:1;stroke:none;stroke-width:3.08297;stroke-linecap:round;stroke-linejoin:round;stroke-miterlimit:4;stroke-dasharray:none;paint-order:stroke fill markers"
       id="rect34989"
       width="211.55789"
       height="301.20615"
       x="-0.011707944"
       y="0.34041342" />
    <circle
       style="opacity:1;fill:#ff7f2a;fill-opacity:1;stroke:none;stroke-width:37.5872;stroke-linecap:round;stroke-linejoin:round"
       id="path1004"
       cx="-340.83206"
       cy="288.9202"
       r="101.26083" />
    <path
       style="fill:#550022;stroke-width:0.264583"
       d="m 643.08881,190.08566 c -15.66005,-1.27224 -31.71468,-7.37067 -44.3963,-16.86415 -18.1648,-13.5982 -30.14765,-33.16198 -33.90342,-55.35233 -1.3072,-7.7234 -3.65457,-18.006806 -2.68035,-25.125766 -0.25392,-13.23828 2.20566,-27.741842 7.04834,-38.313069 1.19397,-2.54204 3.88093,-7.459806 4.07587,-7.459806 0.0476,0 -0.45102,1.220391 -1.10813,2.711986 -3.61393,8.20342 -6.88468,15.565964 -6.90334,23.496229 -0.0147,6.24982 0.14579,10.31726 2.07802,17.84598 0.86107,3.35508 -0.84067,4.51566 -0.0117,6.59953 l 0.86975,4.846576 3.31058,6.81075 c 3.20716,6.59797 5.83126,7.60827 9.12875,9.78677 3.54362,2.34112 7.00636,3.61541 18.68083,6.97147 7.93178,2.28015 11.04707,0.7823 13.20114,-0.2976 0.7198,-0.36085 3.59925,-2.40092 4.77035,-3.40119 1.74867,-1.49358 1.44802,-2.35276 1.63819,-4.24133 0.16077,-1.59671 0.39699,-2.95951 0.2689,-4.4874 -0.0804,-0.95878 -0.73994,-2.71511 -1.29169,-3.85944 l 0.0156,-1.06511 2.02785,-1.1081 c 2.65607,-1.45139 4.43599,-2.7241 6.00335,-4.18542 4.17102,-3.888846 4.94041,-12.056306 -1.18006,-21.222236 -2.98082,-4.46404 -5.24625,-7.24232 -7.28206,-8.10392 -1.2651,-0.53542 -4.06442,-0.33166 -6.61474,-0.18749 -1.68274,0.0951 -4.27974,0.17951 -7.3476,0.81554 -6.20085,1.28556 -3.65832,0.0794 -4.53789,-0.86962 -1.94356,-2.09714 -1.98119,-5.78075 -0.71558,-9.906766 2.93712,-9.575353 0.77188,-6.738023 9.13497,-12.102903 4.71113,-3.02218 9.03759,-4.215555 13.50175,-4.311815 5.41969,-0.11686 8.24418,-0.17302 12.63215,3.515365 6.83907,5.74869 5.90458,8.744247 6.5217,15.962885 -0.004,6.133564 -0.21751,11.080714 -2.74162,24.358544 -1.07702,5.66553 -4.0975,12.462876 -4.5431,14.848996 -0.83671,4.4804 -0.46014,4.43952 -2.04443,5.42315 -0.76591,0.47553 -1.27932,1.37837 -1.27932,2.24974 0,0.78167 0.96657,2.24817 1.58907,2.41095 0.48112,0.12582 0.50837,0.27678 0.32773,1.81602 -0.10835,0.92333 -0.35817,5.3196 -0.35817,9.03038 0,6.30999 -0.25294,8.5268 0.42663,11.88564 2.83872,14.02956 13.37964,33.64547 22.47164,41.22564 7.58811,6.32634 15.90102,7.78621 25.38374,7.2758 10.36675,-0.55799 26.30962,-4.10062 35.79927,-12.07127 l 2.38125,-2.00009 -1.85209,1.74364 c -5.93649,5.58889 -15.37392,9.86735 -25.96168,11.76973 -6.44049,0.95605 -11.28482,2.8292 -18.25194,3.52208 -11.70324,1.26594 -18.98981,0.36835 -28.28222,-0.38657 z m 37.04168,-9.52429 c -3.80933,-0.6677 -6.38837,-1.52875 -10.58333,-3.5334 -3.85006,-1.83983 -6.398,-3.40074 -9.53285,-5.83998 -9.6378,-7.49921 -17.72952,-22.19573 -20.24655,-36.77271 -0.47812,-2.76895 -0.59366,-4.44552 -0.59259,-8.59896 10e-4,-5.11318 0.36078,-6.39676 0.88501,-7.02841 0.1496,-0.18026 1.24944,-0.59104 2.44406,-0.91283 5.15718,-1.38915 14.72604,-4.63945 18.26113,-6.20284 0.82816,-0.36625 1.50574,-0.54707 1.50574,-0.40182 0,0.14526 -0.17432,1.36415 -0.38738,2.70865 -1.27944,8.07367 -1.56172,14.7636 -0.67527,19.68654 1.00564,5.58487 4.41804,13.91821 7.04468,17.20368 2.84406,3.55742 6.65643,6.99709 9.71127,8.7619 3.48143,2.01126 8.61012,3.49138 12.09777,3.49138 7.89832,0 15.179,-2.9961 21.98967,-9.04906 6.25558,-5.55963 9.92331,-14.96301 9.4079,-24.12012 -0.55061,-9.78252 -3.98064,-17.67987 -10.14895,-23.36704 -4.01529,-3.70208 -7.88854,-5.82281 -13.31279,-7.289146 -2.84764,-0.7698 -8.38735,-0.93417 -11.82733,-0.35093 -6.00014,1.0173 -8.90246,1.938436 -24.82561,7.879126 -17.25205,6.43649 -22.02747,7.90737 -23.01406,7.08858 -0.79632,-0.66089 -0.43524,-1.21335 1.51666,-2.32055 3.09777,-1.75718 7.84164,-3.72811 16.60261,-6.89787 2.83766,-1.02668 7.33821,-2.70856 10.00123,-3.73752 5.57888,-2.155606 9.60572,-3.419476 14.47273,-4.542446 2.88386,-0.66539 4.20904,-0.81801 8.20208,-0.94466 5.75993,-0.18269 8.40025,0.12305 12.10906,1.40217 10.9215,3.766696 20.67537,12.209246 26.86667,23.254676 2.51172,4.48099 5.07352,15.16614 5.07477,21.16667 10e-4,5.20916 -1.19596,10.07452 -3.61285,14.68437 -3.45134,6.58289 -8.73712,12.70182 -13.97932,16.18272 -10.60594,7.04254 -24.46492,10.32602 -35.45416,8.39983 z m -11.40044,-60.71732 c 0.5848,-4.01078 1.24468,-9.05555 1.59012,-9.49499 0.65353,-0.83137 7.13645,-4.25962 11.99734,-5.28164 2.70603,-0.56896 3.94544,-0.68235 7.45806,-0.68235 8.11405,1.75995 11.97152,1.58571 18.98112,8.94618 2.45095,3.27934 5.76532,8.0348 6.55799,13.01424 1.26429,7.94204 -0.27757,14.25533 -5.11388,19.18229 -6.49872,6.62053 -11.26855,8.33415 -18.40878,8.57793 -19.24532,-3.74646 -25.24364,-18.87363 -23.06197,-34.26166 z m 67.38085,0.873 c -0.97128,-3.05268 -2.19123,-9.32576 -3.6246,-11.83866 -6.18704,-10.846766 -17.80765,-18.985646 -29.83817,-21.640736 -8.09797,-1.78719 -15.85272,-0.13392 -25.84584,3.10566 -2.23368,0.72411 -4.08909,1.28872 -4.12313,1.25468 -0.034,-0.034 0.48217,-1.54642 1.14713,-3.36084 1.55781,-4.25065 2.16298,-6.65696 2.72198,-10.28696 0.63893,-4.14911 2.28221,-13.403999 1.46168,-17.135268 -1.52503,-6.934951 -3.11203,-13.589566 -6.9427,-18.69987 -7.51566,-10.026258 -19.54602,-18.392874 -31.75341,-21.565029 -2.54066,-0.660203 -12.40785,0.06961 -14.21669,-0.05337 -0.52597,-0.03576 1.06752,-0.541519 4.18942,-1.329677 17.38798,-4.389787 36.3293,-3.181918 52.96058,3.377241 22.2084,8.758696 40.06119,26.477254 48.9186,48.550733 6.19999,15.45098 9.40528,32.072796 6.21994,48.581606 -0.30059,1.55786 -0.57349,2.85952 -0.60646,2.89258 -0.033,0.0331 -0.33371,-0.80038 -0.66833,-1.85209 z m -138.13354,-1.49872 c -10.46679,-3.05192 -11.79699,-3.52676 -14.56186,-5.1982 -4.03315,-2.43814 -5.03341,-3.58231 -8.81093,-10.07858 l -2.02721,-3.48623 v -2.135346 c 0,-1.70013 -0.26777,-3.1736 -1.31379,-7.22939 -1.67254,-6.48501 -2.31617,-10.17704 -2.64444,-15.1691 -0.62987,-9.578601 1.16449,-17.953319 5.9479,-27.760324 4.75575,-9.750296 10.4941,-16.164262 17.1696,-19.191075 4.16916,-1.890392 12.66155,-4.276761 18.41156,-5.173667 4.22358,-0.658809 12.97017,-0.800235 16.34158,-0.264231 3.04675,0.484385 6.64982,1.40769 8.71654,2.233656 9.46115,3.781153 19.23498,12.093441 24.46645,20.807821 2.44971,4.080641 5.19743,10.846381 6.17855,15.213526 0.58891,2.621335 0.84514,14.383454 0.40492,18.587784 -0.61583,5.88152 -2.83314,16.85771 -3.55527,17.59938 -0.18001,0.18488 -3.20682,1.35877 -7.19159,2.863516 -4.23816,1.60043 -8.23342,3.80017 -10.5763,4.22791 -3.51773,0.64222 -3.33354,0.11305 -3.51773,0.11305 -0.24139,0 -0.28649,-0.27698 -0.16154,-0.99219 0.59981,-3.43336 1.51086,-5.117306 3.56007,-13.540776 3.62644,-14.90703 4.17218,-18.6466 3.7482,-25.683692 -0.37064,-6.151787 -1.40454,-9.263077 -4.5679,-13.745937 -2.77937,-3.938725 -6.76932,-7.325737 -11.22411,-9.528007 -3.89133,-1.923716 -5.35237,-2.253408 -9.92187,-2.238901 -3.45763,0.01098 -4.14743,0.09557 -6.98568,0.856671 -6.52051,1.748533 -10.77267,4.218431 -15.52605,9.018417 -2.87016,2.89829 -3.15825,3.28742 -4.53486,6.1252 -2.14307,4.417784 -3.50764,8.99444 -4.431,14.861219 -0.5029,3.19529 0.18961,7.00981 1.76867,9.74233 0.0452,0.0781 -0.9438,0.60408 -2.19766,1.16879 -1.25385,0.56471 -3.01149,1.4968 -3.90585,2.07132 -2.39664,1.53953 -5.70422,4.23576 -5.71648,4.65987 -0.0154,0.53062 2.59293,0.26731 7.75302,-0.78267 4.17179,-0.84888 4.19389,-0.85042 6.28678,-0.4381 1.42311,0.28037 3.31409,0.98539 5.86501,2.18667 2.0706,0.97509 4.54141,2.03961 5.49069,2.36559 3.33812,1.14633 6.75303,2.61354 7.93133,3.40769 0.65484,0.44135 1.78747,1.42017 2.51696,2.17514 1.41603,1.4655 2.55762,1.95725 4.54993,1.95989 0.87518,0.001 1.25777,-0.15381 1.78594,-0.72342 0.54697,-0.58989 0.67217,-0.63759 0.67217,-0.25609 0,1.19705 -0.83899,2.338756 -2.95599,4.022556 -2.79077,2.2197 -4.96907,3.45028 -6.97496,3.94034 -4.42133,1.08017 -17.41089,1.4132 -25.60239,0.65641 -2.85473,-0.26375 -3.16605,-0.24846 -3.63802,0.17867 -0.28388,0.25691 -0.51614,0.60339 -0.51614,0.76997 0,0.35792 3.13438,2.4493 6.48229,4.32525 4.72431,2.64719 14.9464,7.11059 17.66859,7.71486 1.4309,0.31764 1.83834,0.17017 4.49026,-1.62517 0.86057,-0.58261 1.52136,-0.88455 1.52136,-0.69519 0,0.53036 -3.18134,3.3776 -4.55527,4.07687 -0.71489,0.36385 -1.67556,0.6256 -2.24896,0.61277 -0.55054,-0.0123 -4.98957,-1.1854 -9.86452,-2.60685 z M 594.0259,97.770074 c 1.04796,-0.29112 3.15771,-1.96388 3.15771,-2.50366 0,-0.57971 -2.46468,-3.00162 -3.25347,-3.19701 -0.40696,-0.10081 -0.78628,-0.13694 -0.84294,-0.0803 -0.11857,0.11857 -0.93068,5.04546 -0.93068,5.64623 0,0.46364 0.54418,0.50286 1.86938,0.13472 z m -3.66034,-0.99176 c 0.42388,-0.48137 1.6254,-2.77125 2.07607,-3.95658 l 0.25944,-0.68238 -1.52904,0.14167 c -2.31864,0.21481 -2.9855,0.60923 -2.97845,1.76163 0.007,1.16733 0.89334,3.19868 1.39546,3.19868 0.20284,0 0.55228,-0.20836 0.77652,-0.46302 z m 29.10192,-8.68011 c -0.32342,-0.22653 -0.58804,-0.33102 -0.58804,-0.23219 0,0.0988 -0.14883,0.0581 -0.33073,-0.0905 -0.1819,-0.14859 -1.64042,-0.65262 -3.24114,-1.12007 -1.60073,-0.46746 -3.17831,-1.01805 -3.50573,-1.22355 -0.32743,-0.20549 -0.59532,-0.29677 -0.59532,-0.20284 0,0.0939 -0.14882,0.0492 -0.33073,-0.0994 -0.1819,-0.14859 -1.64041,-0.655 -3.24114,-1.12537 -1.60073,-0.47036 -3.14854,-0.98422 -3.43958,-1.14192 -0.29105,-0.15769 -0.5887,-0.30091 -0.66146,-0.31826 -0.0728,-0.0174 -0.48948,-0.17906 -0.92604,-0.35936 -0.43657,-0.1803 -1.15077,-0.39948 -1.58713,-0.48708 -0.73307,-0.14716 -0.68279,-0.18484 0.66145,-0.49568 3.58916,-0.82993 8.5668,-1.47333 10.70708,-1.38395 2.13243,0.089 2.2693,0.13275 3.19068,1.01907 0.94264,0.90678 3.04515,3.91776 4.48025,6.41615 0.76624,1.33395 0.54872,1.64417 -0.59242,0.84489 z"
       id="path882"
       sodipodi:nodetypes="sssccscssscsssssssscssssssssssscssssssscssscsccsssssscssssssssssssssssssssssscssscssccssccsssssssssssssssssssscssssssssssssssssssssssssscsscsssssscssssssssssssssssscssssccscsscsssssssscssscsscc" />
    <path
       id="path16965"
       style="fill:#d40055;fill-opacity:1;stroke:none;stroke-width:3;stroke-linecap:butt;stroke-linejoin:miter;stroke-miterlimit:4;stroke-dasharray:none;stroke-opacity:1"
       d="m 82.388882,52.691 c -24.66971,-0.12671 -32.27333,6.45425 -43.57873,14.43529 -11.30539,7.98104 -15.08354,23.62341 -17.07338,31.80994 -2.54168,10.45694 -1.33186,26.32385 0.93535,32.29106 2.26721,5.96722 -1.17024,11.32632 0.19688,14.49162 2.62127,6.06906 4.39025,8.85945 7.96282,12.04526 3.57257,3.18582 21.7664,8.62613 25.10183,9.19168 3.33544,0.56555 7.98582,-0.53715 10.1198,-2.11356 2.13397,-1.57642 5.24612,-4.55886 4.25917,-6.8864 -0.98695,-2.32755 -7.63055,-9.24802 -7.63055,-9.24802 l -5.40018,0.29249 c 0,0 5.86269,6.53042 6.0694,8.13697 -4.15402,2.92917 -7.08292,3.04084 -9.83351,2.19108 -4.2992,-1.40658 -16.87595,-6.93822 -17.5395,-7.76231 -0.66355,-0.82409 1.27847,-1.67484 1.27847,-1.67484 0,0 14.07093,-1.88176 23.04976,-2.22312 6.95998,-0.2646 15.86081,-6.08231 17.11885,-9.12399 0.85268,-2.06158 -7.38962,-10.03425 -12.16721,-13.47514 -5.76914,-4.15502 -4.32213,-4.51891 -11.67526,-3.78478 0,0 -7.91669,1.79891 -9.35033,-0.22118 -1.43364,-2.02008 -2.18503,-11.97414 -0.56741,-17.31677 1.61761,-5.34263 6.39607,-14.46822 11.73261,-17.05013 5.33656,-2.58191 17.35434,-10.89733 26.95236,-5.68079 9.59802,5.21655 16.7137,13.33744 17.21188,23.24096 0.498158,9.90354 -7.68171,37.43906 -7.68171,37.43906 8.171428,-1.94925 15.793348,-5.05746 29.811618,-13.90819 0,0 2.1071,-8.52818 3.38171,-16.69356 1.45095,-9.29503 0.201,-26.64182 -6.1309,-35.55028 C 112.61082,66.6349 99.503912,52.7789 82.388882,52.691 Z m 66.284328,76.05117 c -3.58072,0.0222 -7.38237,0.50587 -11.40086,1.5291 -17.46074,4.58995 -27.8448,12.98997 -35.79884,16.3959 -11.070538,4.74042 -26.970998,3.10454 -27.181288,4.39818 -0.21029,1.29364 8.50444,7.05675 25.19071,4.84415 6.305868,-0.83616 28.351958,-11.3467 34.513648,-12.0127 6.44247,-0.69635 17.53893,-0.47134 23.23166,3.16569 7.10956,4.54224 11.65681,12.34606 12.14655,20.84524 0.62543,10.85426 -1.18939,15.21004 -7.99176,23.25078 -7.81853,9.24188 -22.68452,11.05578 -31.60324,6.52415 -8.91873,-4.53163 -14.67334,-12.38658 -15.31638,-25.18606 -0.63426,-12.62472 3.21634,-17.73638 3.21634,-17.73638 -12.0788,6.1641 -16.86881,6.55936 -25.529708,7.27397 0,0 -5.41739,7.92301 -2.56935,29.99714 1.64609,12.75821 16.776728,27.4239 28.363128,32.5422 11.83928,5.23003 30.19489,1.60656 39.35315,-1.6645 8.91667,-3.18478 23.56121,-18.82482 29.13518,-30.58677 5.21101,-10.99605 3.40237,-30.39515 -1.81488,-40.48796 -6.56532,-12.59248 -18.69152,-23.19912 -35.94406,-23.09213 z" />
    <path
       id="path16965-5"
       style="opacity:1;fill:url(#linearGradient35268);fill-opacity:1;stroke:none;stroke-width:5;stroke-linecap:round;stroke-linejoin:round;stroke-miterlimit:4;stroke-dasharray:none;stroke-opacity:1;paint-order:stroke fill markers"
       d="M 82.3889,52.691 C 57.71919,52.56429 50.11556,59.14526 38.81016,67.1263 27.50477,75.10733 23.72662,90.7497 21.73678,98.93624 c -2.54168,10.45694 -1.33186,26.32384 0.93535,32.29105 2.26722,5.96722 -1.17024,11.32632 0.19688,14.49162 2.62127,6.06906 4.39026,8.85945 7.96283,12.04526 3.57256,3.18582 21.76639,8.62614 25.10182,9.19169 3.33544,0.56554 7.98582,-0.53716 10.1198,-2.11357 2.13397,-1.57642 5.24612,-4.55886 4.25917,-6.8864 -0.98695,-2.32755 -7.63054,-9.24801 -7.63054,-9.24801 l -5.40019,0.29249 c 0,0 5.8627,6.53042 6.0694,8.13697 -4.15402,2.92917 -7.08292,3.04084 -9.83351,2.19108 -4.2992,-1.40658 -16.87595,-6.93823 -17.5395,-7.76232 -0.66355,-0.82409 1.27848,-1.67483 1.27848,-1.67483 0,0 14.07092,-1.88176 23.04975,-2.22312 6.95998,-0.2646 15.86081,-6.08231 17.11885,-9.12399 0.85268,-2.06158 -7.38961,-10.03426 -12.16721,-13.47515 -5.76914,-4.15502 -4.32213,-4.5189 -11.67526,-3.78478 0,0 -7.91669,1.79891 -9.35033,-0.22118 -1.43364,-2.02008 -2.18503,-11.97413 -0.56741,-17.31677 1.61761,-5.34263 6.39607,-14.46821 11.73262,-17.05012 5.33655,-2.58192 17.35433,-10.89733 26.95236,-5.68079 9.598,5.21654 16.71368,13.33744 17.21185,23.24096 0.49816,9.90353 -7.6817,37.43906 -7.6817,37.43906 8.17142,-1.94925 15.79335,-5.05747 29.81162,-13.9082 0,0 2.10709,-8.52817 3.3817,-16.69355 1.45095,-9.29504 0.20101,-26.64183 -6.13089,-35.55029 C 112.61082,66.6349 99.50391,52.7789 82.3889,52.691 Z m 66.28431,76.05117 c -3.58072,0.0222 -7.38238,0.50588 -11.40086,1.52911 -17.46074,4.58995 -27.84481,12.98997 -35.79884,16.39589 -11.07054,4.74043 -26.97099,3.10455 -27.18128,4.39819 -0.21029,1.29364 8.50445,7.05675 25.1907,4.84414 6.30587,-0.83616 28.35195,-11.3467 34.51365,-12.0127 6.44246,-0.69635 17.53893,-0.47134 23.23166,3.1657 7.10956,4.54223 11.65681,12.34605 12.14654,20.84524 0.62543,10.85426 -1.18938,15.21003 -7.99176,23.25078 -7.81853,9.24188 -22.68451,11.05578 -31.60323,6.52415 -8.91873,-4.53163 -14.67334,-12.38658 -15.31638,-25.18606 -0.63426,-12.62472 3.21634,-17.73639 3.21634,-17.73639 -12.0788,6.1641 -16.86881,6.55937 -25.52971,7.27398 0,0 -5.41738,7.923 -2.56935,29.99713 1.64609,12.75822 16.77673,27.4239 28.36313,32.5422 11.83928,5.23004 30.19489,1.60656 39.35315,-1.6645 8.91667,-3.18478 23.5612,-18.82481 29.13517,-30.58676 5.21101,-10.99606 3.40238,-30.39516 -1.81487,-40.48797 -6.56532,-12.59247 -18.69153,-23.19911 -35.94406,-23.09213 z" />
    <path
       style="fill:#ff0066;stroke:url(#linearGradient22633);stroke-width:2.565;stroke-miterlimit:4;stroke-dasharray:none;paint-order:stroke fill markers"
       d="m -855.64133,464.4921 c -3.80933,-0.6677 -6.38837,-1.52875 -10.58333,-3.5334 -3.85006,-1.83983 -6.398,-3.40074 -9.53285,-5.83998 -9.6378,-7.49921 -17.72951,-22.19573 -20.24655,-36.77271 -0.47812,-2.76895 -0.59366,-4.44552 -0.59259,-8.59896 10e-4,-5.11318 0.36078,-6.39676 0.88501,-7.02841 0.1496,-0.18026 1.24944,-0.59104 2.44407,-0.91283 5.15716,-1.38915 14.72603,-4.63945 18.26112,-6.20284 0.82816,-0.36625 1.50574,-0.54707 1.50574,-0.40182 0,0.14526 -0.17432,1.36415 -0.38738,2.70865 -1.27944,8.07367 -1.56172,14.7636 -0.67527,19.68654 1.00564,5.58487 4.41804,13.91821 7.04468,17.20368 2.84406,3.55742 6.65643,6.99709 9.71127,8.7619 3.48143,2.01126 8.61012,3.49138 12.09777,3.49138 7.89832,0 15.179,-2.9961 21.98967,-9.04906 6.25558,-5.55963 9.92331,-14.96301 9.4079,-24.12012 -0.55061,-9.78252 -3.98064,-17.67987 -10.14895,-23.36704 -4.01529,-3.70208 -7.88854,-5.82281 -13.31279,-7.28915 -2.84764,-0.7698 -8.38735,-0.93417 -11.82733,-0.35093 -6.00014,1.0173 -8.90246,1.93844 -24.82561,7.87913 -17.25205,6.43649 -22.02747,7.90737 -23.01406,7.08858 -0.79632,-0.66089 0.46555,-1.21335 2.41745,-2.32055 3.09778,-1.75718 6.94084,-3.72811 15.70182,-6.89787 2.83766,-1.02668 7.33821,-2.70856 10.00123,-3.73752 5.57888,-2.15561 10.5048,-4.45072 15.37181,-5.57369 7.83933,-1.23438 15.305,-1.90813 23.38938,0.80862 10.9215,3.7667 16.69805,12.88938 22.88934,23.93481 2.51172,4.48099 5.07352,15.16614 5.07477,21.16667 10e-4,5.20916 -1.19596,10.07452 -3.61285,14.68437 -3.45134,6.58289 -8.73711,12.70182 -13.97931,16.18272 -10.60594,7.04254 -24.46492,10.32602 -35.45416,8.39983 z m -82.15313,-61.34304 c -10.46679,-3.05192 -11.79699,-3.52676 -14.56186,-5.1982 -4.03315,-2.43814 -5.03341,-3.58231 -8.81093,-10.07858 l -2.02721,-3.48623 v -2.13535 c 0,-1.70013 -0.26777,-3.1736 -1.31379,-7.22939 -1.67254,-6.48501 -2.31617,-10.17704 -2.64444,-15.1691 -0.62987,-9.57861 1.16449,-17.95339 5.9479,-27.76039 4.75575,-9.75029 10.4941,-16.16426 17.1696,-19.19108 4.16916,-1.89039 12.66155,-4.27676 18.41156,-5.17366 4.22358,-0.65881 12.97017,-0.80024 16.34158,-0.26423 3.04675,0.48438 6.64982,1.40769 8.71654,2.23365 9.46115,3.78116 19.23498,12.09345 24.46645,20.80782 2.44971,4.08064 5.19743,10.84638 6.17855,15.21354 0.58891,2.62136 0.84514,14.38351 0.40492,18.58784 -0.61583,5.88152 -2.83314,16.85771 -3.55527,17.59938 -0.18001,0.18488 -3.16016,2.01783 -7.19159,3.39268 -5.51121,1.87951 -6.67451,2.29607 -10.5763,3.69875 -2.2412,0.8057 -3.86271,1.17138 -4.0469,1.17138 -0.24139,0 -0.28649,-0.27698 -0.16154,-0.99219 0.59981,-3.43336 2.04004,-6.17564 4.08924,-14.59911 3.62644,-14.90703 4.17218,-18.6466 3.7482,-25.68372 -0.37064,-6.15183 -1.40455,-9.26312 -4.5679,-13.74598 -2.77937,-3.93872 -6.76932,-7.32573 -11.22411,-9.528 -3.89133,-1.92372 -5.35237,-2.25341 -9.92187,-2.2389 -3.45763,0.011 -4.14743,0.0956 -6.98568,0.85667 -6.52051,1.74853 -10.77267,4.21843 -15.52605,9.01841 -2.87016,2.89829 -3.15825,3.28742 -4.53486,6.1252 -2.14307,4.41779 -3.50764,8.99448 -4.431,14.86129 -0.5029,3.19529 0.18961,7.00981 1.76867,9.74233 0.0452,0.0781 -0.9438,0.60408 -2.19766,1.16879 -1.25385,0.56471 -3.01149,1.4968 -3.90585,2.07132 -2.39664,1.53953 -5.70422,4.23576 -5.71648,4.65987 -0.0154,0.53062 2.59293,0.26731 7.75302,-0.78267 4.17179,-0.84888 4.19389,-0.85042 6.28678,-0.4381 1.42311,0.28037 3.31409,0.98539 5.86501,2.18667 2.0706,0.97509 4.54141,2.03961 5.49069,2.36559 3.33812,1.14633 6.75303,2.61354 7.93133,3.40769 0.65484,0.44135 1.78747,1.42017 2.51696,2.17514 1.41603,1.4655 2.55762,1.95725 4.54993,1.95989 0.87518,10e-4 1.25777,-0.15381 1.78594,-0.72342 0.54697,-0.58989 0.67217,-0.63759 0.67217,-0.25609 0,1.19705 -0.83899,2.33876 -2.95599,4.02256 -2.79077,2.2197 -4.96907,3.45028 -6.97496,3.94034 -4.42133,1.08017 -17.41089,1.4132 -25.60239,0.65641 -2.85473,-0.26375 -3.16605,-0.24846 -3.63802,0.17867 -0.28388,0.25691 -0.51614,0.60339 -0.51614,0.76997 0,0.35792 3.13438,2.4493 6.48229,4.32525 4.72431,2.64719 14.9464,7.11059 17.66859,7.71486 1.4309,0.31764 1.83834,0.17017 4.49026,-1.62517 0.86057,-0.58261 1.52136,-0.88455 1.52136,-0.69519 0,0.53036 -3.18134,3.3776 -4.55527,4.07687 -0.71489,0.36385 -1.67556,0.6256 -2.24896,0.61277 -0.55054,-0.0123 -4.98957,-1.1854 -9.86452,-2.60685 z m -3.95146,-21.44826 c 1.04796,-0.29112 3.15771,-1.96388 3.15771,-2.50366 0,-0.57971 -2.46468,-3.00162 -3.25347,-3.19701 -0.40696,-0.10081 -0.78628,-0.13694 -0.84294,-0.0803 -0.11857,0.11857 -0.93068,5.04546 -0.93068,5.64623 0,0.46364 0.54418,0.50286 1.86938,0.13472 z m -3.66034,-0.99176 c 0.42388,-0.48137 1.6254,-2.77125 2.07607,-3.95658 l 0.25944,-0.68238 -1.52904,0.14167 c -2.31864,0.21481 -2.9855,0.60923 -2.97845,1.76163 0.007,1.16733 0.89334,3.19868 1.39546,3.19868 0.20284,0 0.55228,-0.20836 0.77652,-0.46302 z m 29.10192,-8.68011 c -0.32342,-0.22653 -0.58804,-0.33102 -0.58804,-0.23219 0,0.0988 -0.14883,0.0581 -0.33073,-0.0905 -0.1819,-0.14859 -1.64042,-0.65262 -3.24114,-1.12007 -1.60073,-0.46746 -3.17831,-1.01805 -3.50573,-1.22355 -0.32743,-0.20549 -0.59532,-0.29677 -0.59532,-0.20284 0,0.0939 -0.14882,0.0492 -0.33073,-0.0994 -0.1819,-0.14859 -1.64041,-0.655 -3.24114,-1.12537 -1.60073,-0.47036 -3.14854,-0.98422 -3.43958,-1.14192 -0.29105,-0.15769 -0.5887,-0.30091 -0.66146,-0.31826 -0.0728,-0.0174 -0.48948,-0.17906 -0.92604,-0.35936 -0.43657,-0.1803 -1.15077,-0.39948 -1.58713,-0.48708 -0.73307,-0.14716 -0.68279,-0.18484 0.66145,-0.49568 3.58916,-0.82993 8.5668,-1.47333 10.70708,-1.38395 2.13243,0.089 2.2693,0.13275 3.19068,1.01907 0.94264,0.90678 3.04515,3.91776 4.48025,6.41615 0.76624,1.33395 0.54872,1.64417 -0.59242,0.84489 z"
       id="path882-7"
       sodipodi:nodetypes="sssscsssssssssssssssssssccscsssssscssssssssssssssssssssssssscsscsssssscssssssssssssssssscssssscscsscsssssssscssscsscc" />
    <path
       style="fill:#2ca089;fill-opacity:1;stroke:none;stroke-width:0.27396px;stroke-linecap:butt;stroke-linejoin:miter;stroke-opacity:1"
       d="m 42.922804,130.88449 c 2.60366,0.42941 4.10479,4.38571 4.10479,4.38571 0,0 -3.05007,3.0807 -4.92047,2.68419 -1.8704,-0.39649 -4.94707,-3.75468 -4.94707,-3.75468 1.69667,-1.74117 3.95003,-3.55702 5.76275,-3.31522 z"
       id="path26941"
       sodipodi:nodetypes="ccscc" />
    <circle
       style="opacity:1;fill:#2ca089;fill-opacity:1;stroke:none;stroke-width:2.12597;stroke-linecap:round;stroke-linejoin:round;stroke-miterlimit:4;stroke-dasharray:none;paint-order:stroke fill markers"
       id="path37818"
       cx="-204.52408"
       cy="168.34174"
       r="5.1373348" />
  </g>
</svg>
